<svg width="19" height="20" viewBox="0 0 19 20" fill="none" xmlns="http://www.w3.org/2000/svg">
<path d="M15.8333 0.320312H3.16667C1.425 0.320312 0 2.22031 0 4.54253V15.0981C0 17.4203 1.425 19.3203 3.16667 19.3203H15.8333C17.575 19.3203 19 17.4203 19 15.0981V4.54253C19 2.22031 17.575 0.320312 15.8333 0.320312ZM17.1 6.44253L10.8458 12.037C10.45 12.3536 9.975 12.5648 9.5 12.5648C9.025 12.5648 8.55 12.3536 8.15417 12.037L1.9 6.44253C1.58333 6.12587 1.50417 5.49254 1.74167 4.96476C1.97917 4.54253 2.45417 4.43698 2.85 4.75365L9.10417 10.3481C9.34167 10.5592 9.7375 10.5592 9.975 10.3481L16.2292 4.75365C16.625 4.43698 17.1 4.54253 17.3375 5.07031C17.4958 5.49253 17.4167 6.12587 17.1 6.44253Z" fill="white"/>
</svg>
